<mxfile host="app.diagrams.net" modified="2022-06-15T16:50:22.890Z" agent="5.0 (Windows NT 10.0; Win64; x64) AppleWebKit/537.36 (KHTML, like Gecko) Chrome/102.0.0.0 Safari/537.36" etag="LSFec7w9o5VM6ig_iBJI" version="20.0.1" type="github">
  <diagram id="1Y-h_gMSpbXjNAjZNNcW" name="Page-1">
    <mxGraphModel dx="1422" dy="762" grid="1" gridSize="10" guides="1" tooltips="1" connect="1" arrows="1" fold="1" page="1" pageScale="1" pageWidth="827" pageHeight="1169" math="0" shadow="0">
      <root>
        <mxCell id="0" />
        <mxCell id="1" parent="0" />
        <mxCell id="8nlPESdQlSbIShFrbJUq-188" style="edgeStyle=orthogonalEdgeStyle;rounded=0;orthogonalLoop=1;jettySize=auto;html=1;exitX=0.5;exitY=0;exitDx=0;exitDy=0;entryX=0.499;entryY=1;entryDx=0;entryDy=0;entryPerimeter=0;endArrow=none;endFill=0;" parent="1" source="LCUx6dB7vMvkdcI-Hgyc-2" target="8nlPESdQlSbIShFrbJUq-186" edge="1">
          <mxGeometry relative="1" as="geometry" />
        </mxCell>
        <mxCell id="LCUx6dB7vMvkdcI-Hgyc-2" value="movie_theater" style="swimlane;fontStyle=0;childLayout=stackLayout;horizontal=1;startSize=30;horizontalStack=0;resizeParent=1;resizeParentMax=0;resizeLast=0;collapsible=1;marginBottom=0;rounded=1;swimlaneLine=1;verticalAlign=middle;" parent="1" vertex="1">
          <mxGeometry x="290" y="220" width="210" height="210" as="geometry" />
        </mxCell>
        <mxCell id="LCUx6dB7vMvkdcI-Hgyc-3" value="id PRIMARY KEY INT(11)" style="text;strokeColor=none;fillColor=none;align=left;verticalAlign=middle;spacingLeft=4;spacingRight=4;overflow=hidden;points=[[0,0.5],[1,0.5]];portConstraint=eastwest;rotatable=0;fontStyle=4" parent="LCUx6dB7vMvkdcI-Hgyc-2" vertex="1">
          <mxGeometry y="30" width="210" height="30" as="geometry" />
        </mxCell>
        <mxCell id="LCUx6dB7vMvkdcI-Hgyc-4" value="name VARCHAR(60)" style="text;strokeColor=none;fillColor=none;align=left;verticalAlign=middle;spacingLeft=4;spacingRight=4;overflow=hidden;points=[[0,0.5],[1,0.5]];portConstraint=eastwest;rotatable=0;" parent="LCUx6dB7vMvkdcI-Hgyc-2" vertex="1">
          <mxGeometry y="60" width="210" height="30" as="geometry" />
        </mxCell>
        <object label="city VARCHAR(255)" id="LCUx6dB7vMvkdcI-Hgyc-5">
          <mxCell style="text;strokeColor=none;fillColor=none;align=left;verticalAlign=middle;spacingLeft=4;spacingRight=4;overflow=hidden;points=[[0,0.5],[1,0.5]];portConstraint=eastwest;rotatable=0;" parent="LCUx6dB7vMvkdcI-Hgyc-2" vertex="1">
            <mxGeometry y="90" width="210" height="30" as="geometry" />
          </mxCell>
        </object>
        <mxCell id="LCUx6dB7vMvkdcI-Hgyc-9" value="address VARCHAR (255)" style="text;strokeColor=none;fillColor=none;align=left;verticalAlign=middle;spacingLeft=4;spacingRight=4;overflow=hidden;points=[[0,0.5],[1,0.5]];portConstraint=eastwest;rotatable=0;" parent="LCUx6dB7vMvkdcI-Hgyc-2" vertex="1">
          <mxGeometry y="120" width="210" height="30" as="geometry" />
        </mxCell>
        <mxCell id="LCUx6dB7vMvkdcI-Hgyc-8" value="zipcode INT(5)" style="text;strokeColor=none;fillColor=none;align=left;verticalAlign=middle;spacingLeft=4;spacingRight=4;overflow=hidden;points=[[0,0.5],[1,0.5]];portConstraint=eastwest;rotatable=0;" parent="LCUx6dB7vMvkdcI-Hgyc-2" vertex="1">
          <mxGeometry y="150" width="210" height="30" as="geometry" />
        </mxCell>
        <mxCell id="8nlPESdQlSbIShFrbJUq-192" value="user_id FOREIGN KEY INT(11)" style="text;strokeColor=none;fillColor=none;align=left;verticalAlign=middle;spacingLeft=4;spacingRight=4;overflow=hidden;points=[[0,0.5],[1,0.5]];portConstraint=eastwest;rotatable=0;" parent="LCUx6dB7vMvkdcI-Hgyc-2" vertex="1">
          <mxGeometry y="180" width="210" height="30" as="geometry" />
        </mxCell>
        <mxCell id="LCUx6dB7vMvkdcI-Hgyc-10" value="admin" style="swimlane;fontStyle=0;childLayout=stackLayout;horizontal=1;startSize=30;horizontalStack=0;resizeParent=1;resizeParentMax=0;resizeLast=0;collapsible=1;marginBottom=0;rounded=1;" parent="1" vertex="1">
          <mxGeometry x="600" y="40" width="160" height="120" as="geometry" />
        </mxCell>
        <mxCell id="LCUx6dB7vMvkdcI-Hgyc-11" value="id PRIMARY KEY INT(11)" style="text;strokeColor=none;fillColor=none;align=left;verticalAlign=middle;spacingLeft=4;spacingRight=4;overflow=hidden;points=[[0,0.5],[1,0.5]];portConstraint=eastwest;rotatable=0;rounded=1;fontStyle=4" parent="LCUx6dB7vMvkdcI-Hgyc-10" vertex="1">
          <mxGeometry y="30" width="160" height="30" as="geometry" />
        </mxCell>
        <mxCell id="LCUx6dB7vMvkdcI-Hgyc-12" value="username VARCHAR(100)" style="text;strokeColor=none;fillColor=none;align=left;verticalAlign=middle;spacingLeft=4;spacingRight=4;overflow=hidden;points=[[0,0.5],[1,0.5]];portConstraint=eastwest;rotatable=0;rounded=1;" parent="LCUx6dB7vMvkdcI-Hgyc-10" vertex="1">
          <mxGeometry y="60" width="160" height="30" as="geometry" />
        </mxCell>
        <mxCell id="LCUx6dB7vMvkdcI-Hgyc-13" value="password VARCHAR(255)" style="text;strokeColor=none;fillColor=none;align=left;verticalAlign=middle;spacingLeft=4;spacingRight=4;overflow=hidden;points=[[0,0.5],[1,0.5]];portConstraint=eastwest;rotatable=0;rounded=1;" parent="LCUx6dB7vMvkdcI-Hgyc-10" vertex="1">
          <mxGeometry y="90" width="160" height="30" as="geometry" />
        </mxCell>
        <mxCell id="8nlPESdQlSbIShFrbJUq-23" value="movie_room" style="swimlane;fontStyle=0;childLayout=stackLayout;horizontal=1;startSize=30;horizontalStack=0;resizeParent=1;resizeParentMax=0;resizeLast=0;collapsible=1;marginBottom=0;rounded=1;" parent="1" vertex="1">
          <mxGeometry x="50" y="250" width="170" height="150" as="geometry" />
        </mxCell>
        <mxCell id="8nlPESdQlSbIShFrbJUq-24" value="id PRIMARY KEY INT(11)" style="text;strokeColor=none;fillColor=none;align=left;verticalAlign=middle;spacingLeft=4;spacingRight=4;overflow=hidden;points=[[0,0.5],[1,0.5]];portConstraint=eastwest;rotatable=0;rounded=1;fontStyle=4" parent="8nlPESdQlSbIShFrbJUq-23" vertex="1">
          <mxGeometry y="30" width="170" height="30" as="geometry" />
        </mxCell>
        <mxCell id="8nlPESdQlSbIShFrbJUq-25" value="movie_room_number INT(1)" style="text;strokeColor=none;fillColor=none;align=left;verticalAlign=middle;spacingLeft=4;spacingRight=4;overflow=hidden;points=[[0,0.5],[1,0.5]];portConstraint=eastwest;rotatable=0;rounded=1;" parent="8nlPESdQlSbIShFrbJUq-23" vertex="1">
          <mxGeometry y="60" width="170" height="30" as="geometry" />
        </mxCell>
        <mxCell id="8nlPESdQlSbIShFrbJUq-26" value="seats INT(3)" style="text;strokeColor=none;fillColor=none;align=left;verticalAlign=middle;spacingLeft=4;spacingRight=4;overflow=hidden;points=[[0,0.5],[1,0.5]];portConstraint=eastwest;rotatable=0;rounded=1;" parent="8nlPESdQlSbIShFrbJUq-23" vertex="1">
          <mxGeometry y="90" width="170" height="30" as="geometry" />
        </mxCell>
        <mxCell id="yWF6dLxzGCkyuV81QXmP-10" value="movie_theater_id FOREIGN&#xa;KEY INT(11)" style="text;strokeColor=none;fillColor=none;align=left;verticalAlign=middle;spacingLeft=4;spacingRight=4;overflow=hidden;points=[[0,0.5],[1,0.5]];portConstraint=eastwest;rotatable=0;rounded=1;" parent="8nlPESdQlSbIShFrbJUq-23" vertex="1">
          <mxGeometry y="120" width="170" height="30" as="geometry" />
        </mxCell>
        <mxCell id="yWF6dLxzGCkyuV81QXmP-15" style="edgeStyle=orthogonalEdgeStyle;rounded=0;orthogonalLoop=1;jettySize=auto;html=1;exitX=0.348;exitY=0.008;exitDx=0;exitDy=0;endArrow=none;endFill=0;exitPerimeter=0;" parent="1" source="8nlPESdQlSbIShFrbJUq-33" edge="1">
          <mxGeometry relative="1" as="geometry">
            <mxPoint x="120" y="520" as="targetPoint" />
          </mxGeometry>
        </mxCell>
        <mxCell id="8nlPESdQlSbIShFrbJUq-33" value="movie_session" style="swimlane;fontStyle=0;childLayout=stackLayout;horizontal=1;startSize=30;horizontalStack=0;resizeParent=1;resizeParentMax=0;resizeLast=0;collapsible=1;marginBottom=0;rounded=1;" parent="1" vertex="1">
          <mxGeometry x="50" y="550" width="200" height="150" as="geometry" />
        </mxCell>
        <mxCell id="8nlPESdQlSbIShFrbJUq-34" value="id PRIMARY KEY INT(11)" style="text;strokeColor=none;fillColor=none;align=left;verticalAlign=middle;spacingLeft=4;spacingRight=4;overflow=hidden;points=[[0,0.5],[1,0.5]];portConstraint=eastwest;rotatable=0;rounded=1;fontStyle=4" parent="8nlPESdQlSbIShFrbJUq-33" vertex="1">
          <mxGeometry y="30" width="200" height="30" as="geometry" />
        </mxCell>
        <mxCell id="8nlPESdQlSbIShFrbJUq-35" value="date DATE" style="text;strokeColor=none;fillColor=none;align=left;verticalAlign=middle;spacingLeft=4;spacingRight=4;overflow=hidden;points=[[0,0.5],[1,0.5]];portConstraint=eastwest;rotatable=0;rounded=1;" parent="8nlPESdQlSbIShFrbJUq-33" vertex="1">
          <mxGeometry y="60" width="200" height="30" as="geometry" />
        </mxCell>
        <mxCell id="8nlPESdQlSbIShFrbJUq-36" value="time TIME" style="text;strokeColor=none;fillColor=none;align=left;verticalAlign=middle;spacingLeft=4;spacingRight=4;overflow=hidden;points=[[0,0.5],[1,0.5]];portConstraint=eastwest;rotatable=0;rounded=1;" parent="8nlPESdQlSbIShFrbJUq-33" vertex="1">
          <mxGeometry y="90" width="200" height="30" as="geometry" />
        </mxCell>
        <mxCell id="yWF6dLxzGCkyuV81QXmP-8" value="movie_id FOREIGN KEY INT (11)" style="text;strokeColor=none;fillColor=none;align=left;verticalAlign=middle;spacingLeft=4;spacingRight=4;overflow=hidden;points=[[0,0.5],[1,0.5]];portConstraint=eastwest;rotatable=0;rounded=1;" parent="8nlPESdQlSbIShFrbJUq-33" vertex="1">
          <mxGeometry y="120" width="200" height="30" as="geometry" />
        </mxCell>
        <mxCell id="8nlPESdQlSbIShFrbJUq-41" value="movie" style="swimlane;fontStyle=0;childLayout=stackLayout;horizontal=1;startSize=30;horizontalStack=0;resizeParent=1;resizeParentMax=0;resizeLast=0;collapsible=1;marginBottom=0;rounded=1;" parent="1" vertex="1">
          <mxGeometry x="440" y="505" width="150" height="210" as="geometry" />
        </mxCell>
        <mxCell id="8nlPESdQlSbIShFrbJUq-42" value="id PRIMARY KEY INT(11)" style="text;strokeColor=none;fillColor=none;align=left;verticalAlign=middle;spacingLeft=4;spacingRight=4;overflow=hidden;points=[[0,0.5],[1,0.5]];portConstraint=eastwest;rotatable=0;rounded=1;fontStyle=4" parent="8nlPESdQlSbIShFrbJUq-41" vertex="1">
          <mxGeometry y="30" width="150" height="30" as="geometry" />
        </mxCell>
        <mxCell id="8nlPESdQlSbIShFrbJUq-43" value="name VARCHAR(100)" style="text;strokeColor=none;fillColor=none;align=left;verticalAlign=middle;spacingLeft=4;spacingRight=4;overflow=hidden;points=[[0,0.5],[1,0.5]];portConstraint=eastwest;rotatable=0;rounded=1;" parent="8nlPESdQlSbIShFrbJUq-41" vertex="1">
          <mxGeometry y="60" width="150" height="30" as="geometry" />
        </mxCell>
        <mxCell id="8nlPESdQlSbIShFrbJUq-44" value="synopsis VARCHAR(255)" style="text;strokeColor=none;fillColor=none;align=left;verticalAlign=middle;spacingLeft=4;spacingRight=4;overflow=hidden;points=[[0,0.5],[1,0.5]];portConstraint=eastwest;rotatable=0;rounded=1;" parent="8nlPESdQlSbIShFrbJUq-41" vertex="1">
          <mxGeometry y="90" width="150" height="30" as="geometry" />
        </mxCell>
        <mxCell id="8nlPESdQlSbIShFrbJUq-48" value="running_time INT(3)" style="text;strokeColor=none;fillColor=none;align=left;verticalAlign=middle;spacingLeft=4;spacingRight=4;overflow=hidden;points=[[0,0.5],[1,0.5]];portConstraint=eastwest;rotatable=0;rounded=1;" parent="8nlPESdQlSbIShFrbJUq-41" vertex="1">
          <mxGeometry y="120" width="150" height="30" as="geometry" />
        </mxCell>
        <mxCell id="8nlPESdQlSbIShFrbJUq-45" value="genre VARCHAR(20)" style="text;strokeColor=none;fillColor=none;align=left;verticalAlign=middle;spacingLeft=4;spacingRight=4;overflow=hidden;points=[[0,0.5],[1,0.5]];portConstraint=eastwest;rotatable=0;rounded=1;" parent="8nlPESdQlSbIShFrbJUq-41" vertex="1">
          <mxGeometry y="150" width="150" height="30" as="geometry" />
        </mxCell>
        <mxCell id="8nlPESdQlSbIShFrbJUq-46" value="rating VARCHAR(20)" style="text;strokeColor=none;fillColor=none;align=left;verticalAlign=middle;spacingLeft=4;spacingRight=4;overflow=hidden;points=[[0,0.5],[1,0.5]];portConstraint=eastwest;rotatable=0;rounded=1;" parent="8nlPESdQlSbIShFrbJUq-41" vertex="1">
          <mxGeometry y="180" width="150" height="30" as="geometry" />
        </mxCell>
        <mxCell id="8nlPESdQlSbIShFrbJUq-56" value="booking" style="swimlane;fontStyle=0;childLayout=stackLayout;horizontal=1;startSize=30;horizontalStack=0;resizeParent=1;resizeParentMax=0;resizeLast=0;collapsible=1;marginBottom=0;rounded=1;arcSize=14;" parent="1" vertex="1">
          <mxGeometry x="210" y="800" width="240" height="240" as="geometry" />
        </mxCell>
        <mxCell id="8nlPESdQlSbIShFrbJUq-57" value="id PRIMARY KEY INT(11)" style="text;strokeColor=none;fillColor=none;align=left;verticalAlign=middle;spacingLeft=4;spacingRight=4;overflow=hidden;points=[[0,0.5],[1,0.5]];portConstraint=eastwest;rotatable=0;rounded=1;fontStyle=4" parent="8nlPESdQlSbIShFrbJUq-56" vertex="1">
          <mxGeometry y="30" width="240" height="30" as="geometry" />
        </mxCell>
        <mxCell id="8nlPESdQlSbIShFrbJUq-58" value="booking_date DATETIME" style="text;strokeColor=none;fillColor=none;align=left;verticalAlign=middle;spacingLeft=4;spacingRight=4;overflow=hidden;points=[[0,0.5],[1,0.5]];portConstraint=eastwest;rotatable=0;rounded=1;" parent="8nlPESdQlSbIShFrbJUq-56" vertex="1">
          <mxGeometry y="60" width="240" height="30" as="geometry" />
        </mxCell>
        <mxCell id="8nlPESdQlSbIShFrbJUq-59" value="payment_type VARCHAR(20)" style="text;strokeColor=none;fillColor=none;align=left;verticalAlign=middle;spacingLeft=4;spacingRight=4;overflow=hidden;points=[[0,0.5],[1,0.5]];portConstraint=eastwest;rotatable=0;rounded=1;" parent="8nlPESdQlSbIShFrbJUq-56" vertex="1">
          <mxGeometry y="90" width="240" height="30" as="geometry" />
        </mxCell>
        <mxCell id="8nlPESdQlSbIShFrbJUq-60" value="payment_date DATETIME" style="text;strokeColor=none;fillColor=none;align=left;verticalAlign=middle;spacingLeft=4;spacingRight=4;overflow=hidden;points=[[0,0.5],[1,0.5]];portConstraint=eastwest;rotatable=0;rounded=1;" parent="8nlPESdQlSbIShFrbJUq-56" vertex="1">
          <mxGeometry y="120" width="240" height="30" as="geometry" />
        </mxCell>
        <mxCell id="yWF6dLxzGCkyuV81QXmP-11" value="movie_session_id FOREIGN KEY INT(11)" style="text;strokeColor=none;fillColor=none;align=left;verticalAlign=middle;spacingLeft=4;spacingRight=4;overflow=hidden;points=[[0,0.5],[1,0.5]];portConstraint=eastwest;rotatable=0;rounded=1;" parent="8nlPESdQlSbIShFrbJUq-56" vertex="1">
          <mxGeometry y="150" width="240" height="30" as="geometry" />
        </mxCell>
        <mxCell id="yWF6dLxzGCkyuV81QXmP-12" value="payment_id FOREIGN KEY INT(11)" style="text;strokeColor=none;fillColor=none;align=left;verticalAlign=middle;spacingLeft=4;spacingRight=4;overflow=hidden;points=[[0,0.5],[1,0.5]];portConstraint=eastwest;rotatable=0;rounded=1;" parent="8nlPESdQlSbIShFrbJUq-56" vertex="1">
          <mxGeometry y="180" width="240" height="30" as="geometry" />
        </mxCell>
        <mxCell id="yWF6dLxzGCkyuV81QXmP-13" value="customer_id FOREIGN KEY INT(11)" style="text;strokeColor=none;fillColor=none;align=left;verticalAlign=middle;spacingLeft=4;spacingRight=4;overflow=hidden;points=[[0,0.5],[1,0.5]];portConstraint=eastwest;rotatable=0;rounded=1;" parent="8nlPESdQlSbIShFrbJUq-56" vertex="1">
          <mxGeometry y="210" width="240" height="30" as="geometry" />
        </mxCell>
        <mxCell id="8nlPESdQlSbIShFrbJUq-62" value="" style="endArrow=none;html=1;rounded=0;" parent="1" edge="1">
          <mxGeometry relative="1" as="geometry">
            <mxPoint x="120" y="700" as="sourcePoint" />
            <mxPoint x="120" y="880" as="targetPoint" />
          </mxGeometry>
        </mxCell>
        <mxCell id="8nlPESdQlSbIShFrbJUq-65" value="" style="endArrow=none;html=1;rounded=0;entryX=-0.003;entryY=0.651;entryDx=0;entryDy=0;entryPerimeter=0;" parent="1" target="8nlPESdQlSbIShFrbJUq-58" edge="1">
          <mxGeometry relative="1" as="geometry">
            <mxPoint x="120" y="880" as="sourcePoint" />
            <mxPoint x="250" y="880" as="targetPoint" />
          </mxGeometry>
        </mxCell>
        <mxCell id="8nlPESdQlSbIShFrbJUq-66" value="customer" style="swimlane;fontStyle=0;childLayout=stackLayout;horizontal=1;startSize=30;horizontalStack=0;resizeParent=1;resizeParentMax=0;resizeLast=0;collapsible=1;marginBottom=0;rounded=1;labelBackgroundColor=none;" parent="1" vertex="1">
          <mxGeometry x="490" y="980" width="170" height="180" as="geometry" />
        </mxCell>
        <mxCell id="8nlPESdQlSbIShFrbJUq-67" value="id PRIMARY KEY INT(11)" style="text;strokeColor=none;fillColor=none;align=left;verticalAlign=middle;spacingLeft=4;spacingRight=4;overflow=hidden;points=[[0,0.5],[1,0.5]];portConstraint=eastwest;rotatable=0;rounded=1;labelBackgroundColor=none;fontStyle=4" parent="8nlPESdQlSbIShFrbJUq-66" vertex="1">
          <mxGeometry y="30" width="170" height="30" as="geometry" />
        </mxCell>
        <mxCell id="8nlPESdQlSbIShFrbJUq-68" value="lastname VARCHAR(60)" style="text;strokeColor=none;fillColor=none;align=left;verticalAlign=middle;spacingLeft=4;spacingRight=4;overflow=hidden;points=[[0,0.5],[1,0.5]];portConstraint=eastwest;rotatable=0;rounded=1;labelBackgroundColor=none;" parent="8nlPESdQlSbIShFrbJUq-66" vertex="1">
          <mxGeometry y="60" width="170" height="30" as="geometry" />
        </mxCell>
        <mxCell id="8nlPESdQlSbIShFrbJUq-69" value="firstname VARCHAR(60)" style="text;strokeColor=none;fillColor=none;align=left;verticalAlign=middle;spacingLeft=4;spacingRight=4;overflow=hidden;points=[[0,0.5],[1,0.5]];portConstraint=eastwest;rotatable=0;rounded=1;labelBackgroundColor=none;" parent="8nlPESdQlSbIShFrbJUq-66" vertex="1">
          <mxGeometry y="90" width="170" height="30" as="geometry" />
        </mxCell>
        <mxCell id="8nlPESdQlSbIShFrbJUq-70" value="username VARCHAR(100)" style="text;strokeColor=none;fillColor=none;align=left;verticalAlign=middle;spacingLeft=4;spacingRight=4;overflow=hidden;points=[[0,0.5],[1,0.5]];portConstraint=eastwest;rotatable=0;rounded=1;labelBackgroundColor=none;" parent="8nlPESdQlSbIShFrbJUq-66" vertex="1">
          <mxGeometry y="120" width="170" height="30" as="geometry" />
        </mxCell>
        <mxCell id="8nlPESdQlSbIShFrbJUq-71" value="password VARCHAR(255)" style="text;strokeColor=none;fillColor=none;align=left;verticalAlign=middle;spacingLeft=4;spacingRight=4;overflow=hidden;points=[[0,0.5],[1,0.5]];portConstraint=eastwest;rotatable=0;rounded=1;labelBackgroundColor=none;" parent="8nlPESdQlSbIShFrbJUq-66" vertex="1">
          <mxGeometry y="150" width="170" height="30" as="geometry" />
        </mxCell>
        <mxCell id="8nlPESdQlSbIShFrbJUq-76" value="" style="endArrow=none;html=1;rounded=0;entryX=0;entryY=0.333;entryDx=0;entryDy=0;entryPerimeter=0;" parent="1" target="8nlPESdQlSbIShFrbJUq-69" edge="1">
          <mxGeometry relative="1" as="geometry">
            <mxPoint x="320" y="1040" as="sourcePoint" />
            <mxPoint x="480" y="950" as="targetPoint" />
            <Array as="points">
              <mxPoint x="320" y="1080" />
            </Array>
          </mxGeometry>
        </mxCell>
        <mxCell id="8nlPESdQlSbIShFrbJUq-79" value="payment" style="swimlane;fontStyle=0;childLayout=stackLayout;horizontal=1;startSize=26;horizontalStack=0;resizeParent=1;resizeParentMax=0;resizeLast=0;collapsible=1;marginBottom=0;align=center;fontSize=14;rounded=1;labelBackgroundColor=none;" parent="1" vertex="1">
          <mxGeometry x="560" y="817" width="160" height="116" as="geometry" />
        </mxCell>
        <mxCell id="8nlPESdQlSbIShFrbJUq-80" value="id PRIMARY KEY INT(11)" style="text;strokeColor=none;fillColor=none;spacingLeft=4;spacingRight=4;overflow=hidden;rotatable=0;points=[[0,0.5],[1,0.5]];portConstraint=eastwest;fontSize=12;rounded=1;labelBackgroundColor=none;fontStyle=4" parent="8nlPESdQlSbIShFrbJUq-79" vertex="1">
          <mxGeometry y="26" width="160" height="30" as="geometry" />
        </mxCell>
        <mxCell id="8nlPESdQlSbIShFrbJUq-81" value="type VARCHAR(30)" style="text;strokeColor=none;fillColor=none;spacingLeft=4;spacingRight=4;overflow=hidden;rotatable=0;points=[[0,0.5],[1,0.5]];portConstraint=eastwest;fontSize=12;rounded=1;labelBackgroundColor=none;" parent="8nlPESdQlSbIShFrbJUq-79" vertex="1">
          <mxGeometry y="56" width="160" height="30" as="geometry" />
        </mxCell>
        <mxCell id="8nlPESdQlSbIShFrbJUq-82" value="price DECIMAL(4, 2)" style="text;strokeColor=none;fillColor=none;spacingLeft=4;spacingRight=4;overflow=hidden;rotatable=0;points=[[0,0.5],[1,0.5]];portConstraint=eastwest;fontSize=12;rounded=1;labelBackgroundColor=none;" parent="8nlPESdQlSbIShFrbJUq-79" vertex="1">
          <mxGeometry y="86" width="160" height="30" as="geometry" />
        </mxCell>
        <mxCell id="8nlPESdQlSbIShFrbJUq-93" value="user" style="swimlane;fontStyle=0;childLayout=stackLayout;horizontal=1;startSize=30;horizontalStack=0;resizeParent=1;resizeParentMax=0;resizeLast=0;collapsible=1;marginBottom=0;rounded=1;labelBackgroundColor=none;" parent="1" vertex="1">
          <mxGeometry x="600" y="250" width="160" height="120" as="geometry" />
        </mxCell>
        <mxCell id="8nlPESdQlSbIShFrbJUq-94" value="id PRIMARY KEY INT(11)" style="text;strokeColor=none;fillColor=none;align=left;verticalAlign=middle;spacingLeft=4;spacingRight=4;overflow=hidden;points=[[0,0.5],[1,0.5]];portConstraint=eastwest;rotatable=0;rounded=1;labelBackgroundColor=none;fontStyle=4" parent="8nlPESdQlSbIShFrbJUq-93" vertex="1">
          <mxGeometry y="30" width="160" height="30" as="geometry" />
        </mxCell>
        <mxCell id="8nlPESdQlSbIShFrbJUq-95" value="username VARCHAR(100)" style="text;strokeColor=none;fillColor=none;align=left;verticalAlign=middle;spacingLeft=4;spacingRight=4;overflow=hidden;points=[[0,0.5],[1,0.5]];portConstraint=eastwest;rotatable=0;rounded=1;labelBackgroundColor=none;" parent="8nlPESdQlSbIShFrbJUq-93" vertex="1">
          <mxGeometry y="60" width="160" height="30" as="geometry" />
        </mxCell>
        <mxCell id="8nlPESdQlSbIShFrbJUq-96" value="password VARCHAR(255)" style="text;strokeColor=none;fillColor=none;align=left;verticalAlign=middle;spacingLeft=4;spacingRight=4;overflow=hidden;points=[[0,0.5],[1,0.5]];portConstraint=eastwest;rotatable=0;rounded=1;labelBackgroundColor=none;" parent="8nlPESdQlSbIShFrbJUq-93" vertex="1">
          <mxGeometry y="90" width="160" height="30" as="geometry" />
        </mxCell>
        <mxCell id="8nlPESdQlSbIShFrbJUq-97" value="" style="endArrow=none;html=1;rounded=0;exitX=1.005;exitY=0.34;exitDx=0;exitDy=0;exitPerimeter=0;" parent="1" source="LCUx6dB7vMvkdcI-Hgyc-5" edge="1">
          <mxGeometry relative="1" as="geometry">
            <mxPoint x="460" y="320" as="sourcePoint" />
            <mxPoint x="600" y="319.65999999999997" as="targetPoint" />
          </mxGeometry>
        </mxCell>
        <mxCell id="8nlPESdQlSbIShFrbJUq-182" value="movie_theater_admin" style="swimlane;fontStyle=0;childLayout=stackLayout;horizontal=1;startSize=30;horizontalStack=0;resizeParent=1;resizeParentMax=0;resizeLast=0;collapsible=1;marginBottom=0;rounded=1;labelBackgroundColor=none;" parent="1" vertex="1">
          <mxGeometry x="270" y="40" width="250" height="90" as="geometry" />
        </mxCell>
        <mxCell id="8nlPESdQlSbIShFrbJUq-184" value="admin_id FOREIGN KEY INT(11)" style="text;strokeColor=none;fillColor=none;align=left;verticalAlign=middle;spacingLeft=4;spacingRight=4;overflow=hidden;points=[[0,0.5],[1,0.5]];portConstraint=eastwest;rotatable=0;rounded=1;labelBackgroundColor=none;" parent="8nlPESdQlSbIShFrbJUq-182" vertex="1">
          <mxGeometry y="30" width="250" height="30" as="geometry" />
        </mxCell>
        <mxCell id="8nlPESdQlSbIShFrbJUq-186" value="movie_theater_id FOREIGN KEY INT(11)" style="text;strokeColor=none;fillColor=none;align=left;verticalAlign=middle;spacingLeft=4;spacingRight=4;overflow=hidden;points=[[0,0.5],[1,0.5]];portConstraint=eastwest;rotatable=0;rounded=1;labelBackgroundColor=none;" parent="8nlPESdQlSbIShFrbJUq-182" vertex="1">
          <mxGeometry y="60" width="250" height="30" as="geometry" />
        </mxCell>
        <mxCell id="8nlPESdQlSbIShFrbJUq-187" style="edgeStyle=orthogonalEdgeStyle;rounded=0;orthogonalLoop=1;jettySize=auto;html=1;exitX=1;exitY=0.5;exitDx=0;exitDy=0;entryX=0;entryY=0.5;entryDx=0;entryDy=0;endArrow=none;endFill=0;" parent="1" source="8nlPESdQlSbIShFrbJUq-186" target="LCUx6dB7vMvkdcI-Hgyc-12" edge="1">
          <mxGeometry relative="1" as="geometry" />
        </mxCell>
        <mxCell id="yWF6dLxzGCkyuV81QXmP-6" style="edgeStyle=orthogonalEdgeStyle;rounded=0;orthogonalLoop=1;jettySize=auto;html=1;exitX=0.46;exitY=0.014;exitDx=0;exitDy=0;endArrow=none;endFill=0;exitPerimeter=0;" parent="1" source="yWF6dLxzGCkyuV81QXmP-1" edge="1">
          <mxGeometry relative="1" as="geometry">
            <mxPoint x="120" y="400" as="targetPoint" />
          </mxGeometry>
        </mxCell>
        <mxCell id="yWF6dLxzGCkyuV81QXmP-1" value="movie_room_session" style="swimlane;fontStyle=0;childLayout=stackLayout;horizontal=1;startSize=30;horizontalStack=0;resizeParent=1;resizeParentMax=0;resizeLast=0;collapsible=1;marginBottom=0;rounded=1;labelBackgroundColor=none;" parent="1" vertex="1">
          <mxGeometry x="10" y="430" width="240" height="90" as="geometry" />
        </mxCell>
        <mxCell id="yWF6dLxzGCkyuV81QXmP-2" value="movie_room_id FOREIGN KEY INT(11)" style="text;strokeColor=none;fillColor=none;align=left;verticalAlign=middle;spacingLeft=4;spacingRight=4;overflow=hidden;points=[[0,0.5],[1,0.5]];portConstraint=eastwest;rotatable=0;rounded=1;labelBackgroundColor=none;" parent="yWF6dLxzGCkyuV81QXmP-1" vertex="1">
          <mxGeometry y="30" width="240" height="30" as="geometry" />
        </mxCell>
        <mxCell id="yWF6dLxzGCkyuV81QXmP-3" value="movie_session_id FOREIGN KEY INT(11)" style="text;strokeColor=none;fillColor=none;align=left;verticalAlign=middle;spacingLeft=4;spacingRight=4;overflow=hidden;points=[[0,0.5],[1,0.5]];portConstraint=eastwest;rotatable=0;rounded=1;labelBackgroundColor=none;" parent="yWF6dLxzGCkyuV81QXmP-1" vertex="1">
          <mxGeometry y="60" width="240" height="30" as="geometry" />
        </mxCell>
        <mxCell id="yWF6dLxzGCkyuV81QXmP-14" style="edgeStyle=orthogonalEdgeStyle;rounded=0;orthogonalLoop=1;jettySize=auto;html=1;exitX=1;exitY=0.5;exitDx=0;exitDy=0;entryX=0;entryY=0.5;entryDx=0;entryDy=0;endArrow=none;endFill=0;" parent="1" source="8nlPESdQlSbIShFrbJUq-25" target="LCUx6dB7vMvkdcI-Hgyc-5" edge="1">
          <mxGeometry relative="1" as="geometry" />
        </mxCell>
        <mxCell id="yWF6dLxzGCkyuV81QXmP-16" style="edgeStyle=orthogonalEdgeStyle;rounded=0;orthogonalLoop=1;jettySize=auto;html=1;exitX=0;exitY=0.5;exitDx=0;exitDy=0;endArrow=none;endFill=0;" parent="1" source="8nlPESdQlSbIShFrbJUq-44" target="8nlPESdQlSbIShFrbJUq-34" edge="1">
          <mxGeometry relative="1" as="geometry">
            <Array as="points">
              <mxPoint x="440" y="595" />
            </Array>
          </mxGeometry>
        </mxCell>
        <mxCell id="yWF6dLxzGCkyuV81QXmP-17" style="edgeStyle=orthogonalEdgeStyle;rounded=0;orthogonalLoop=1;jettySize=auto;html=1;exitX=1;exitY=0.5;exitDx=0;exitDy=0;entryX=0;entryY=0.056;entryDx=0;entryDy=0;entryPerimeter=0;endArrow=none;endFill=0;" parent="1" source="8nlPESdQlSbIShFrbJUq-58" target="8nlPESdQlSbIShFrbJUq-81" edge="1">
          <mxGeometry relative="1" as="geometry" />
        </mxCell>
      </root>
    </mxGraphModel>
  </diagram>
</mxfile>
